<svg id="Layer_1" data-name="Layer 1" xmlns="http://www.w3.org/2000/svg" viewBox="0 0 566.93 566.93">
    <defs>
        <style>.cls-1{fill:#ff4ba8;}.cls-2{fill:#fff;}.cls-3{fill:#231f20;}</style>
    </defs>
    <title>patroon</title>
    <path class="cls-1"
          d="M113.77,406.67c9.59-66.6-30-69.83-31-166.31-.27-26.18-.57-54.78,14-87,22.25-49.09,64.09-73.46,84.7-85.1C241,34.66,365.18-2.32,437.34,68.08c42,41,46.69,99,46.89,125.74-4.89,66.14-7.69,113.53-9.51,149-1.2,23.34-2.84,58.4-26,90-2.44,3.34-22.25,29.66-35.53,25.68-16.43-4.93-17-27.37-17.57-44.51-.42-11.52-2.63-23.5-9.73-32.58S365.75,367.12,355.3,372c-15.87,7.37-15.67,29.44-15,46.93A227.89,227.89,0,0,1,317.4,527c-2.45,5-5.73,10.48-11.19,11.72-9.93,2.26-16.26-10.41-17.57-20.51-5.5-42.62,8.78-85.49,7.15-128.43-.5-13.12-2.87-27-11.7-36.74s-25.87-12.8-34.91-3.28c-5,5.28-6.49,12.92-7.55,20.13a438.67,438.67,0,0,0-4.7,58.48c-.31,22.93-.87,50.09-20,62.81-4.67,3.11-11.59,4.7-15.45.64a13.71,13.71,0,0,1-2.84-5.83c-9.26-32-1-66.6-7-99.34-1.09-6-4.38-13.2-10.43-12.86a10.73,10.73,0,0,0-6.14,3c-10.32,8.9-12,24-13,37.59q-2.51,34.89-5,69.77c-1.55,21.73-7.06,48.54-28.12,54.13-5.43,1.44-11.94.78-15.58-3.5a16.14,16.14,0,0,1-3.57-9C105.24,465.89,113.77,406.67,113.77,406.67Z"/>
    <path class="cls-2"
          d="M203.74,143.52c-13.43-2.77-28.06-.69-39.51,6.86s-19.3,20.8-19.15,34.52,8.9,27.28,21.8,32c5.79,2.11,12.06,2.45,18.23,2.52A65.44,65.44,0,0,0,201.35,218c21-5.16,34.38-30.72,26.6-50.94s-34.82-30.23-53.89-20"/>
    <path class="cls-2"
          d="M342.17,148.65c-16.5-3.5-35.06.36-46.86,12.4s-14.84,32.68-4.79,46.21c8.67,11.66,24.3,15.86,38.82,16.19,15.53.35,33.15-4.33,40.23-18.15,2.75-5.36,3.56-11.51,3.69-17.53.15-6.89-.59-14-3.81-20.08-4.92-9.34-15.07-15-25.42-17.08s-21-1.05-31.54,0"/>
    <path class="cls-3"
          d="M216.72,152.74c-10.29-2.12-21.49-.53-30.26,5.26s-14.78,15.93-14.67,26.43,6.82,20.9,16.7,24.49c4.43,1.61,9.24,1.88,14,1.93a49.78,49.78,0,0,0,12.43-1.08c16.12-4,26.34-23.53,20.38-39S208.59,147.6,194,155.47"/>
    <path class="cls-3"
          d="M356.75,156.67c-12.63-2.68-26.85.27-35.88,9.5s-11.37,25-3.67,35.39c6.63,8.93,18.61,12.14,29.73,12.4,11.89.26,25.39-3.32,30.81-13.9,2.11-4.11,2.73-8.82,2.83-13.43.11-5.27-.46-10.71-2.92-15.38-3.77-7.15-11.54-11.49-19.47-13.08s-16.11-.8-24.16,0"/>
</svg>