<svg id="Layer_1" data-name="Layer 1" xmlns="http://www.w3.org/2000/svg" viewBox="0 0 566.93 566.93">
    <defs>
        <style>.cls-1{fill:#bbff61;}.cls-2{fill:#fff;}.cls-3{fill:#231f20;}</style>
    </defs>
    <title>patroon</title>
    <path class="cls-1"
          d="M116.1,208c-.59-8.55-1.64-36.22,5.58-70.52C125.36,120,131.61,102.6,143,88.85c9.65-11.62,22.51-20.1,35.45-27.89,17.78-10.69,36.28-20.5,56.2-26.31,41.76-12.19,86.72-5.95,128.79,5.17,17,4.48,34.32,10.06,47.33,21.85,16.8,15.21,23.75,38.29,28.55,60.44,22.41,103.32,13.19,213.55-27.74,311-3,7.11-6.25,14.32-11.73,19.73s-13.69,8.72-21,6.38c-6.32-2-10.79-7.76-13.52-13.82-5.48-12.13-5.41-26-9.55-38.69s-15.46-25.1-28.58-22.82C315,386,308.48,399.22,304.66,411c-8.6,26.46-13.24,54-17.43,81.54-1.61,10.63-3.27,21.57-8.7,30.86S262.92,540,252.23,538.8c-14.57-1.68-23.11-17.86-24.29-32.49-1.32-16.33-.92-23.67-.18-43.93.92-25-2.64-61.74-11.64-63.26-9.33-1.58-27.07,34.24-35.12,54.86-4.25,10.89-8.51,18.95-16.75,28.27-7.27,8.23-20.36,13.11-29.25,6.68a22.43,22.43,0,0,1-7.85-11.15c-10.53-32.92-2.17-63.31-2.17-63.31C129.3,398.76,124.9,335.16,116.1,208Z"/>
    <path class="cls-2"
          d="M169.36,152c-3.76,10.29-1.14,25.35,8.76,32.42,7.59,5.43,17.4,6.47,26.72,6.69,12.54.28,31.24-.33,38.57-14.22,6.62-12.54-.35-30.22-11.11-38.87C213.12,122.54,176.77,131.68,169.36,152Z"/>
    <path class="cls-2"
          d="M377.28,144.4c-6.64-1.89-19.56-5.59-34.11-.23-5,1.85-21.11,7.75-24.43,21.6-3.39,14.13,7,28.25,19.45,35.78,16.59,10,39.22,11.78,54.89.36a24.74,24.74,0,0,0,8.67-10.31c.91-2.27,1.76-5.15,1.79-10.7,0-8.67.09-17.49-5.27-24.88C393.13,148.94,385.66,146.8,377.28,144.4Z"/>
    <path class="cls-3"
          d="M192.41,161.48c-3,8.25-.91,20.32,7,26,6.09,4.34,13.95,5.18,21.43,5.35,10,.23,25-.26,30.92-11.39,5.31-10.06-.28-24.23-8.9-31.17C227.49,137.89,198.35,145.22,192.41,161.48Z"/>
    <path class="cls-3"
          d="M359.11,155.42c-5.32-1.52-15.68-4.48-27.35-.18-4,1.48-16.92,6.21-19.58,17.31-2.72,11.33,5.63,22.65,15.59,28.68,13.31,8.06,31.44,9.45,44,.3a19.81,19.81,0,0,0,7-8.27,21.48,21.48,0,0,0,1.43-8.58c0-7,.08-14-4.22-19.94C371.82,159.06,365.83,157.34,359.11,155.42Z"/>
</svg>