<svg id="Layer_1" data-name="Layer 1" xmlns="http://www.w3.org/2000/svg" viewBox="0 0 566.93 566.93">
<defs>
    <style>.cls-1{fill:#5ef9eb;}.cls-2{fill:#fff;}.cls-3{fill:#231f20;}</style>
</defs>
<title>patroon</title>
<path class="cls-1"
      d="M127.8,265.13c3.61-10.44,6.47-20.19,7.66-31.88,2-20-3-32.82,3.5-78.91,5.18-36.82,18.68-74.8,50.66-100.22,50.1-39.82,141-33.15,182.22,13.37C409.2,109.68,403.36,167.71,417.33,219c23,84.44,101.91,154.75,110.59,241.09.43,4.29.54,9-2.59,12.42-2.55,2.78-6.76,4.07-10.82,4.84-35.33,6.68-69.21-16.4-88.91-42s-32.2-55.74-58.14-77.06c-3.19-2.62-6.74-5.16-11.07-6-15.58-3.12-23.7,15.08-24.6,28.57a1028.61,1028.61,0,0,0-.69,125.88c.4,7.11.78,14.58-3,20.94-9.31,15.62-38.77,14.05-52.91,1.28s-17.11-31.45-19.39-48.83Q249.1,429,242.38,377.84c-1.41-10.78-4.91-23.8-17.21-26.95-16.76-4.29-28.53,13.37-34.88,27.15-18.18,39.45-49.4,74.56-89.21,100.32-9.94,6.43-21.1,12.49-33.61,13-11.33.47-23.49-7.7-27.21-17.12-5.44-13.75,5.51-28.7,10.84-36C82.85,395,98.3,350.4,127.8,265.13Z"/>
<path class="cls-2"
      d="M333.92,140.68c10.92-.14,12.23-1.3,17,.38,3.18,1.13,10.19,3.4,13.82,11.31,3,6.61,2.59,14.75,2.05,22.33a19.13,19.13,0,0,1-1.24,6.47c-2.23,4.85-7.59,5.29-12.07,5.15l-24.86-.79c-8.15-.26-16.51-.56-24.09-4.32a28.24,28.24,0,0,1-15.44-21.83c-.37-3.38,0-7.12,1.85-9.65a9.86,9.86,0,0,1,4.34-3.34c8.63-3.63,12.94-5.45,15.45-5.87C319.33,139.1,320.31,140.86,333.92,140.68Z"/>
<path class="cls-2"
      d="M202.56,145.41c-15.24-.3-17.55.53-19.88,2.37-5.15,4.06-10,12.68-8.63,21.34a22.49,22.49,0,0,0,8.75,14.22c4.23,3.18,9.1,4.74,13.93,6,17.09,4.34,35.6,4.79,51.2-5,5.09-3.17,10.38-9.12,9.22-16.08-.72-4.33-4.22-7-10.6-11.35-4.69-3.23-10.13-6.92-18.66-9.44C222.29,145.82,215.64,145.66,202.56,145.41Z"/>
<path class="cls-3"
      d="M338.94,156.09c8.45-.11,9.46-1,13.14.3,2.46.87,7.88,2.63,10.69,8.76,2.35,5.11,2,11.41,1.59,17.28a14.77,14.77,0,0,1-1,5c-1.73,3.75-5.88,4.09-9.34,4l-19.25-.6c-6.31-.2-12.78-.44-18.65-3.35a21.89,21.89,0,0,1-12-16.9c-.28-2.62,0-5.52,1.44-7.47a7.69,7.69,0,0,1,3.36-2.59c6.68-2.81,10-4.22,12-4.54C327.64,154.87,328.4,156.23,338.94,156.09Z"/>
<path class="cls-3"
      d="M208.23,159.75c-11.8-.23-13.59.42-15.39,1.84-4,3.15-7.77,9.82-6.69,16.52a17.44,17.44,0,0,0,6.78,11,29.25,29.25,0,0,0,10.78,4.61c13.23,3.36,27.56,3.71,39.64-3.83,3.94-2.46,8-7.06,7.14-12.44-.56-3.36-3.27-5.4-8.21-8.8a47.6,47.6,0,0,0-14.45-7.31C223.5,160.07,218.35,160,208.23,159.75Z"/>
</svg>